<svg width="512" height="512" viewBox="70 54 390 390" fill="none" xmlns="http://www.w3.org/2000/svg">
  <defs>
    <linearGradient id="mark" x1="256" y1="84" x2="256" y2="428" gradientUnits="userSpaceOnUse">
      <stop offset="0" stop-color="#7C3FA8"/>
      <stop offset="0.48" stop-color="#CC2F79"/>
      <stop offset="1" stop-color="#F12D59"/>
    </linearGradient>
    <linearGradient id="shine" x1="128" y1="112" x2="376" y2="420" gradientUnits="userSpaceOnUse">
      <stop offset="0" stop-color="white" stop-opacity="0.26"/>
      <stop offset="1" stop-color="white" stop-opacity="0"/>
    </linearGradient>
  </defs>
  <path d="M124 122C124 91.1 149.1 66 180 66H332C362.9 66 388 91.1 388 122V142H124V122Z" fill="url(#mark)"/>
  <path d="M124 174H388V342C388 398.3 342.3 444 286 444H226C169.7 444 124 398.3 124 342V174Z" fill="url(#mark)"/>
  <path d="M124 174H388V342C388 398.3 342.3 444 286 444H226C169.7 444 124 398.3 124 342V174Z" fill="url(#shine)"/>
  <rect x="181" y="54" width="24" height="58" rx="12" fill="white"/>
  <rect x="307" y="54" width="24" height="58" rx="12" fill="white"/>
  <rect x="124" y="146" width="264" height="28" fill="white"/>
  <circle cx="219" cy="250" r="44" stroke="white" stroke-width="22"/>
  <path d="M139 356C139 315.7 174.8 286 219 286C253.2 286 282.2 303.8 294.3 331.2" stroke="white" stroke-width="22" stroke-linecap="round"/>
  <circle cx="314" cy="285" r="38" stroke="white" stroke-width="20"/>
  <path d="M262 373C275.8 342.7 302.9 327 335 327C368.6 327 397 349.4 405 379" stroke="white" stroke-width="20" stroke-linecap="round"/>
  <path d="M206 356H258M232 330V382" stroke="white" stroke-width="20" stroke-linecap="round"/>
</svg>
