<svg width="512" height="512" viewBox="0 0 512 512" fill="none" xmlns="http://www.w3.org/2000/svg">
  <defs>
    <linearGradient id="calendarGradient" x1="256" y1="106" x2="256" y2="406" gradientUnits="userSpaceOnUse">
      <stop offset="0" stop-color="#7C3FA8"/>
      <stop offset="0.47" stop-color="#CC2F79"/>
      <stop offset="1" stop-color="#F12D59"/>
    </linearGradient>
    <linearGradient id="surfaceLight" x1="132" y1="128" x2="383" y2="406" gradientUnits="userSpaceOnUse">
      <stop offset="0" stop-color="#FFFFFF" stop-opacity="0.18"/>
      <stop offset="1" stop-color="#FFFFFF" stop-opacity="0"/>
    </linearGradient>
  </defs>

  <path d="M106 154C106 127.49 127.49 106 154 106H358C384.51 106 406 127.49 406 154V164H106V154Z" fill="url(#calendarGradient)"/>
  <path d="M106 180H406V334C406 373.76 373.76 406 334 406H178C138.24 406 106 373.76 106 334V180Z" fill="url(#calendarGradient)"/>
  <path d="M106 180H406V334C406 373.76 373.76 406 334 406H178C138.24 406 106 373.76 106 334V180Z" fill="url(#surfaceLight)"/>

  <rect x="181" y="106" width="20" height="38" rx="10" fill="#FFFFFF"/>
  <rect x="311" y="106" width="20" height="38" rx="10" fill="#FFFFFF"/>

  <circle cx="227" cy="235" r="34" stroke="#FFFFFF" stroke-width="18"/>
  <path d="M162 313C162 277.25 190.65 254 227 254C263.1 254 291.56 277.46 300 311" stroke="#FFFFFF" stroke-width="18" stroke-linecap="round"/>

  <circle cx="317" cy="281" r="32" stroke="#FFFFFF" stroke-width="17"/>
  <path d="M263 367C276.53 336.67 306.08 319 341 319C374.24 319 400.43 340.6 408 371" stroke="#FFFFFF" stroke-width="17" stroke-linecap="round"/>

  <path d="M203 355H257M230 328V382" stroke="#FFFFFF" stroke-width="18" stroke-linecap="round"/>
</svg>
